PathFileType  4	(X/Y/Z) /Users/callumsherry/opencap-sandboxes/opencap-core-sandbox/diagnostics/openpose_swapped
DataRate	CameraRate	NumFrames	NumMarkers	Units	OrigDataRate	OrigDataStartFrame	OrigNumFrames
30.0	30.0	10	20	m	30.0	1	45
Frame#	Time	Neck			RShoulder			RElbow			RWrist			LShoulder			LElbow			LWrist			midHip			RHip			RKnee			RAnkle			LHip			LKnee			LAnkle			LBigToe			LSmallToe			LHeel			RBigToe			RSmallToe			RHeel			
		X1	Y1	Z1	X2	Y2	Z2	X3	Y3	Z3	X4	Y4	Z4	X5	Y5	Z5	X6	Y6	Z6	X7	Y7	Z7	X8	Y8	Z8	X9	Y9	Z9	X10	Y10	Z10	X11	Y11	Z11	X12	Y12	Z12	X13	Y13	Z13	X14	Y14	Z14	X15	Y15	Z15	X16	Y16	Z16	X17	Y17	Z17	X18	Y18	Z18	X19	Y19	Z19	X20	Y20	Z20	

1	0.0000000	-0.5563900	1.4720700	-0.2662500	-0.5422000	1.4743800	-0.0895200	-0.5140900	1.2378800	0.0505800	-0.4293500	1.0518800	0.2211800	-0.5599600	1.4816000	-0.4402100	-0.5338400	1.2405500	-0.5850200	-0.4521600	1.0321700	-0.7084700	-0.4684200	0.8934400	-0.2694900	-0.4951500	0.8963000	-0.1475500	-0.5213500	0.4695100	-0.1461600	-0.5498600	0.1039500	-0.1446000	-0.4632600	0.8869000	-0.3826100	-0.4695900	0.4892000	-0.3811100	-0.5403100	0.1049300	-0.3943200	-0.3613400	0.0533600	-0.4109500	-0.4211700	0.0478100	-0.4700100	-0.5961600	0.0598900	-0.3600200	-0.4040300	0.0442500	-0.1323500	-0.4254800	0.0538300	-0.0779500	-0.5961000	0.0499200	-0.1573800
2	0.0333333	-0.5563900	1.4720700	-0.2662700	-0.5423200	1.4747100	-0.0895600	-0.5149200	1.2378700	0.0505800	-0.4293400	1.0516900	0.2211900	-0.5602400	1.4816300	-0.4401700	-0.5339300	1.2405700	-0.5850300	-0.4519100	1.0322100	-0.7085200	-0.4684300	0.8935700	-0.2694800	-0.4951400	0.8963200	-0.1475400	-0.5213300	0.4694600	-0.1461600	-0.5498300	0.1040100	-0.1446100	-0.4640100	0.8868900	-0.3824800	-0.4697200	0.4891700	-0.3810700	-0.5400000	0.1050300	-0.3943800	-0.3612400	0.0532800	-0.4109600	-0.4212100	0.0479400	-0.4699800	-0.5961100	0.0597600	-0.3600300	-0.4040700	0.0442400	-0.1323500	-0.4255000	0.0539400	-0.0779500	-0.5959700	0.0500300	-0.1574000
3	0.0666667	-0.5565200	1.4720900	-0.2662700	-0.5423500	1.4743900	-0.0895300	-0.5140800	1.2378600	0.0505800	-0.4294200	1.0518900	0.2212200	-0.5600500	1.4816200	-0.4402300	-0.5340300	1.2405300	-0.5850700	-0.4524200	1.0369300	-0.7083100	-0.4684300	0.8934600	-0.2695000	-0.4951400	0.8963100	-0.1475600	-0.5213900	0.4695000	-0.1461500	-0.5498500	0.1039100	-0.1445900	-0.4633100	0.8869000	-0.3826200	-0.4695700	0.4892000	-0.3810900	-0.5385500	0.1003400	-0.3935800	-0.3612500	0.0533200	-0.4109100	-0.4197000	0.0432000	-0.4692300	-0.5961200	0.0598900	-0.3600400	-0.4039600	0.0442400	-0.1323700	-0.4254000	0.0538200	-0.0779700	-0.5961300	0.0498800	-0.1573600
4	0.1000000	-0.5565200	1.4721000	-0.2662900	-0.5424500	1.4747300	-0.0895700	-0.5148700	1.2379000	0.0505800	-0.4298800	1.0566000	0.2211000	-0.5603700	1.4816700	-0.4402000	-0.5339900	1.2405700	-0.5850300	-0.4520900	1.0369900	-0.7083300	-0.4685200	0.8936100	-0.2695100	-0.4951800	0.8963400	-0.1475600	-0.5213800	0.4694500	-0.1461400	-0.5493100	0.0988800	-0.1440200	-0.4641500	0.8869000	-0.3825200	-0.4697900	0.4891500	-0.3810900	-0.5381400	0.1004400	-0.3935800	-0.3611400	0.0532700	-0.4109500	-0.4196700	0.0433900	-0.4691800	-0.5959200	0.0597800	-0.3599500	-0.4038500	0.0442500	-0.1324000	-0.4253600	0.0538900	-0.0780000	-0.5959200	0.0498500	-0.1573600
5	0.1333333	-0.5565100	1.4720900	-0.2662900	-0.5423400	1.4744100	-0.0895700	-0.5142300	1.2378900	0.0506200	-0.4299700	1.0567900	0.2211000	-0.5600500	1.4816200	-0.4402200	-0.5340400	1.2405300	-0.5851000	-0.4524300	1.0369400	-0.7083100	-0.4684800	0.8934800	-0.2695200	-0.4951400	0.8963300	-0.1475700	-0.5213100	0.4695100	-0.1461500	-0.5497400	0.1039400	-0.1445900	-0.4633900	0.8869000	-0.3826500	-0.4696200	0.4891700	-0.3811200	-0.5384700	0.1003500	-0.3935300	-0.3614100	0.0532300	-0.4109900	-0.4196900	0.0431700	-0.4692500	-0.5960100	0.0599500	-0.3599400	-0.4039000	0.0442100	-0.1323800	-0.4253700	0.0537900	-0.0780000	-0.5960000	0.0498700	-0.1573400
6	0.1666667	-0.5565000	1.4720800	-0.2662800	-0.5425500	1.4747300	-0.0895400	-0.5152400	1.2379000	0.0506500	-0.4299100	1.0566300	0.2210700	-0.5602700	1.4816500	-0.4401900	-0.5340500	1.2406000	-0.5850700	-0.4521300	1.0370400	-0.7082800	-0.4683400	0.8935900	-0.2695400	-0.4950900	0.8963500	-0.1475800	-0.5213300	0.4695000	-0.1461500	-0.5497600	0.1040100	-0.1446100	-0.4639400	0.8869300	-0.3825400	-0.4698200	0.4891700	-0.3811100	-0.5398100	0.1051300	-0.3943200	-0.3615400	0.0531100	-0.4109400	-0.4212500	0.0479300	-0.4699200	-0.5764100	0.0676800	-0.3631800	-0.4037900	0.0442500	-0.1324100	-0.4253300	0.0539000	-0.0780100	-0.5960000	0.0500600	-0.1573800
7	0.2000000	-0.5565500	1.4720900	-0.2662700	-0.5424900	1.4743600	-0.0894900	-0.5142900	1.2378200	0.0506800	-0.4296700	1.0568100	0.2211000	-0.5600000	1.4816400	-0.4402400	-0.5513500	1.2405100	-0.5933800	-0.4524500	1.0369900	-0.7082400	-0.4682900	0.8934300	-0.2695300	-0.4950600	0.8963100	-0.1475500	-0.5213600	0.4695500	-0.1461500	-0.5497300	0.1039400	-0.1445900	-0.4463400	0.8890300	-0.3855200	-0.4696100	0.4891700	-0.3811100	-0.5401400	0.1050500	-0.3942900	-0.3615600	0.0532100	-0.4109100	-0.4211300	0.0477800	-0.4699600	-0.5959200	0.0600400	-0.3599800	-0.4038000	0.0442500	-0.1324000	-0.4253300	0.0538000	-0.0780000	-0.5960300	0.0499600	-0.1573500
8	0.2333333	-0.5563800	1.4720800	-0.2662500	-0.5423600	1.4747000	-0.0894800	-0.5149900	1.2378500	0.0506900	-0.4296100	1.0566600	0.2211000	-0.5602900	1.4816800	-0.4401900	-0.5340500	1.2406600	-0.5850600	-0.4522200	1.0370600	-0.7083300	-0.4682300	0.8935600	-0.2695000	-0.4949300	0.8963200	-0.1475200	-0.5215300	0.4693500	-0.1461900	-0.5497200	0.1039900	-0.1446000	-0.4638400	0.8869300	-0.3825000	-0.4698300	0.4891000	-0.3811000	-0.5396900	0.1051200	-0.3942700	-0.3608600	0.0589700	-0.4101300	-0.4212400	0.0479600	-0.4699300	-0.5957200	0.0598600	-0.3598800	-0.4039200	0.0441900	-0.1324500	-0.4253900	0.0538700	-0.0780300	-0.5948800	0.0443600	-0.1578700
9	0.2666667	-0.5564600	1.4720900	-0.2662200	-0.5422700	1.4743500	-0.0894400	-0.5141500	1.2378500	0.0507000	-0.4296400	1.0568700	0.2210900	-0.5600700	1.4816500	-0.4402200	-0.5340300	1.2406200	-0.5851100	-0.4527800	1.0415500	-0.7081900	-0.4681900	0.8934500	-0.2694900	-0.4948900	0.8963000	-0.1475100	-0.5215200	0.4694400	-0.1461900	-0.5497500	0.1039500	-0.1446000	-0.4630100	0.8869600	-0.3826100	-0.4696700	0.4891300	-0.3811400	-0.5400300	0.1050700	-0.3942500	-0.3609800	0.0590300	-0.4101300	-0.4211900	0.0477800	-0.4699800	-0.5957800	0.0600900	-0.3599300	-0.4039600	0.0441900	-0.1324600	-0.4254200	0.0537700	-0.0780400	-0.5959200	0.0499600	-0.1573300
10	0.3000000	-0.5732400	1.4734200	-0.2627800	-0.5424100	1.4746900	-0.0894500	-0.5150600	1.2378500	0.0507100	-0.4296600	1.0567000	0.2211100	-0.5602700	1.4816800	-0.4401900	-0.5338700	1.2406800	-0.5850400	-0.4523100	1.0416300	-0.7081700	-0.4681900	0.8936100	-0.2694700	-0.4949300	0.8963500	-0.1475000	-0.5214600	0.4693800	-0.1461900	-0.5493900	0.0988700	-0.1440200	-0.4469200	0.8890800	-0.3853200	-0.4698600	0.4890900	-0.3811000	-0.5397500	0.1051000	-0.3942800	-0.3609600	0.0589100	-0.4101500	-0.4212400	0.0479200	-0.4699500	-0.5957900	0.0598700	-0.3598900	-0.4038100	0.0442200	-0.1324700	-0.4234600	0.0500300	-0.0774800	-0.5959800	0.0498600	-0.1573100
